<?xml version="1.0" standalone="no"?>
<!DOCTYPE svg PUBLIC "-//W3C//DTD SVG 20010904//EN"
 "http://www.w3.org/TR/2001/REC-SVG-20010904/DTD/svg10.dtd">
<svg version="1.0" xmlns="http://www.w3.org/2000/svg"
 width="543.000000pt" height="532.000000pt" viewBox="0 0 543.000000 532.000000"
 preserveAspectRatio="xMidYMid meet">

<g transform="translate(0.000000,532.000000) scale(0.100000,-0.100000)"
fill="#000000" stroke="none">
<path d="M2370 4764 c305 -319 342 -354 368 -354 26 0 26 0 -13 41 -65 67
-416 393 -434 403 -9 5 27 -36 79 -90z"/>
<path d="M3138 4022 c4 -350 -10 -869 -24 -906 -5 -14 3 -16 60 -16 83 0 105
18 108 88 1 45 2 45 5 8 5 -49 -13 -95 -41 -100 -11 -3 -151 -14 -311 -26
-159 -12 -321 -25 -360 -31 -56 -8 -614 -66 -675 -70 -39 -3 234 -48 388 -64
l62 -7 0 -580 c0 -575 0 -580 20 -575 18 5 20 0 20 -49 l0 -54 39 0 c45 0 47
-4 54 -130 2 -41 2 -60 0 -42 -2 18 -8 30 -14 27 -12 -8 -12 -72 1 -80 8 -5 7
-11 -1 -21 -9 -11 -8 -15 2 -19 11 -4 14 -46 16 -198 1 -105 7 -277 14 -380
12 -176 14 -189 33 -197 18 -7 14 -9 -22 -15 -32 -6 -42 -12 -38 -22 4 -8 6
-36 6 -63 0 -48 1 -49 33 -52 28 -3 32 -7 35 -36 3 -31 2 -33 -17 -22 -11 6
-32 8 -46 4 -22 -5 -24 -9 -13 -22 12 -13 10 -14 -10 -3 -48 25 -30 4 23 -28
30 -19 55 -37 55 -42 0 -5 -48 -10 -107 -11 -66 -1 -20 -4 117 -9 271 -8 1530
-3 1755 8 l160 8 -235 6 c-129 4 -404 7 -611 8 l-377 1 -4 35 c-2 22 1 40 11
49 12 12 12 22 1 59 -7 26 -9 62 -5 85 6 37 5 40 -21 46 -22 6 -24 9 -12 19
11 8 19 51 28 145 7 72 14 132 15 132 1 0 45 -13 96 -29 161 -49 140 -55 184
57 21 53 64 161 97 238 32 78 58 146 58 151 0 6 -39 20 -87 32 -49 13 -96 25
-105 27 -9 3 -19 13 -21 22 -3 12 -5 11 -6 -5 -1 -23 -21 -33 -21 -11 0 6 -6
3 -14 -8 -17 -23 -26 -16 -36 28 -8 33 -8 33 -9 -9 -1 -62 -28 -58 -36 4 -13
94 -24 109 -18 26 5 -71 4 -83 -10 -83 -9 0 -18 12 -22 31 -4 17 -16 50 -26
74 -15 33 -18 62 -16 129 l2 86 101 0 c112 0 114 1 114 73 0 15 5 27 10 27 7
0 10 207 10 600 l0 600 23 4 c12 3 84 9 160 15 183 13 182 13 190 133 17 249
40 1039 30 1049 -9 9 -115 48 -455 169 l-138 49 -2 -302 -2 -302 -6 305 c-3
168 -7 306 -8 307 -1 1 -28 7 -59 13 -32 6 -67 13 -79 15 -20 4 -20 3 -16
-373z m232 -177 l2 30 8 -30 c7 -28 8 -29 10 -5 l2 25 8 -25 8 -25 2 25 c2 18
5 15 10 -15 7 -37 7 -38 9 -8 1 24 5 30 19 28 9 -2 22 -4 27 -4 7 -1 9 -16 6
-38 l-5 -38 -7 35 -6 35 -2 -32 c0 -18 -5 -33 -10 -33 -18 0 -71 23 -71 31 0
4 -7 6 -15 3 -12 -5 -15 2 -14 32 1 38 2 38 9 9 l8 -30 2 30z m-73 -482 c-1
-65 -3 -14 -3 112 0 127 2 180 3 118 2 -62 2 -165 0 -230z m344 161 c34 -31
29 -102 -9 -130 -47 -36 -112 7 -112 75 0 70 70 101 121 55z m-191 -295 c0
-11 -27 -12 -34 0 -3 4 -3 11 0 14 8 8 34 -3 34 -14z m70 -15 c0 -9 -7 -14
-17 -12 -25 5 -28 28 -4 28 12 0 21 -6 21 -16z m70 -4 c11 -6 12 -12 4 -20
-13 -13 -44 -2 -44 16 0 16 18 18 40 4z m-283 -116 c-3 -3 -12 -4 -19 -1 -8 3
-5 6 6 6 11 1 17 -2 13 -5z m50 -10 c-3 -3 -12 -4 -19 -1 -8 3 -5 6 6 6 11 1
17 -2 13 -5z m60 -10 c-3 -3 -12 -4 -19 -1 -8 3 -5 6 6 6 11 1 17 -2 13 -5z
m56 -11 c-7 -2 -19 -2 -25 0 -7 3 -2 5 12 5 14 0 19 -2 13 -5z m60 -10 c-7 -2
-21 -2 -30 0 -10 3 -4 5 12 5 17 0 24 -2 18 -5z m50 -10 c-7 -2 -19 -2 -25 0
-7 3 -2 5 12 5 14 0 19 -2 13 -5z m60 -10 c-7 -2 -21 -2 -30 0 -10 3 -4 5 12
5 17 0 24 -2 18 -5z m50 -10 c-7 -2 -19 -2 -25 0 -7 3 -2 5 12 5 14 0 19 -2
13 -5z m50 -10 c-7 -2 -19 -2 -25 0 -7 3 -2 5 12 5 14 0 19 -2 13 -5z m54 -9
c-3 -3 -12 -4 -19 -1 -8 3 -5 6 6 6 11 1 17 -2 13 -5z m-580 -381 c-1 -65 -3
-14 -3 112 0 127 2 180 3 118 2 -62 2 -165 0 -230z m-182 225 c-24 -57 -53
-125 -65 -153 -12 -27 -42 -104 -67 -170 -45 -118 -101 -240 -107 -234 -2 2
-5 148 -7 324 l-4 320 70 6 c39 3 104 6 146 7 l77 2 -43 -102z m-352 68 c3 -8
2 -119 -3 -248 -5 -128 -10 -288 -10 -355 0 -121 -11 -160 -24 -85 -3 20 -24
147 -46 282 -48 298 -69 399 -84 402 -13 2 84 14 130 16 20 1 34 -4 37 -12z
m-206 -113 c-2 -21 -4 -4 -4 37 0 41 2 58 4 38 2 -21 2 -55 0 -75z m688 -173
c8 -13 -5 -13 -25 0 -13 8 -13 10 2 10 9 0 20 -4 23 -10z m-8 -52 c-3 -7 -5
-2 -5 12 0 14 2 19 5 13 2 -7 2 -19 0 -25z m-680 -155 c-3 -10 -5 -4 -5 12 0
17 2 24 5 18 2 -7 2 -21 0 -30z m0 -85 c-2 -13 -4 -5 -4 17 -1 22 1 32 4 23 2
-10 2 -28 0 -40z m0 -60 c-3 -7 -5 -2 -5 12 0 14 2 19 5 13 2 -7 2 -19 0 -25z
m780 -575 c-3 -10 -5 -2 -5 17 0 19 2 27 5 18 2 -10 2 -26 0 -35z m-770 -55
c-3 -7 -5 -2 -5 12 0 14 2 19 5 13 2 -7 2 -19 0 -25z m448 -918 c14 -69 29
-126 35 -128 5 -2 10 -8 10 -13 0 -6 -4 -8 -9 -5 -5 4 -16 3 -25 0 -12 -5 -16
-21 -16 -70 l0 -64 34 0 c54 0 66 -8 66 -47 0 -31 -1 -33 -16 -19 -18 19 -64
21 -64 4 0 -6 8 -21 18 -32 17 -20 17 -20 -12 -2 -16 10 -25 13 -22 7 4 -6 25
-20 47 -31 21 -11 39 -25 39 -30 0 -19 -90 -11 -117 10 -30 24 -59 26 -67 5
-8 -22 -26 -18 -26 5 0 11 -7 23 -15 26 -21 9 -19 32 5 39 23 7 24 8 8 74 -8
38 -9 57 0 75 13 30 -5 56 -41 57 -21 0 -21 1 -2 10 19 9 20 21 22 157 1 150
26 361 59 502 l18 75 23 -240 c12 -132 34 -296 48 -365z"/>
<path d="M3441 3804 c0 -11 3 -14 6 -6 3 7 2 16 -1 19 -3 4 -6 -2 -5 -13z"/>
<path d="M2510 4289 c-242 -14 -594 -65 -648 -93 -37 -19 -39 -26 -54 -144
-16 -127 -16 -679 0 -791 14 -98 29 -126 72 -135 42 -8 327 8 698 39 328 28
345 30 362 50 35 43 58 734 32 950 -10 77 -15 93 -37 113 -25 21 -34 22 -163
21 -75 -1 -193 -5 -262 -10z"/>
<path d="M3060 3620 c0 -5 5 -10 10 -10 6 0 10 5 10 10 0 6 -4 10 -10 10 -5 0
-10 -4 -10 -10z"/>
<path d="M3050 3544 c0 -21 4 -25 23 -22 14 2 23 11 25 26 3 18 -1 22 -22 22
-21 0 -26 -5 -26 -26z"/>
<path d="M2420 1485 c0 -37 4 -65 10 -65 6 0 10 28 10 65 0 37 -4 65 -10 65
-6 0 -10 -28 -10 -65z"/>
</g>
</svg>
